<?xml version="1.0" encoding="UTF-8"?>
<svg id="Layer_1" xmlns="http://www.w3.org/2000/svg" viewBox="0 0 1024 1024">
  <defs>
    <style>
      .cls-1 {
        fill: #fffdf3;
      }

      .cls-2 {
        fill: #fcfeff;
      }

      .cls-3 {
        fill: #fff;
        font-family: Poppins-SemiBold, Poppins;
        font-size: 84px;
        font-weight: 600;
        letter-spacing: -.03em;
      }
    </style>
  </defs>
  <g>
    <path class="cls-2" d="M549.23,506.3c0,16.44-3.54,32.04-9.91,46.13l-5.38-5.38-6.61-6.61-5.52-5.52c3.03-8.99,4.67-18.62,4.67-28.62s-1.64-19.63-4.67-28.62c-.84-2.46-1.77-4.87-2.8-7.22-.99-2.29-2.1-4.53-3.29-6.73-1.4-2.61-2.93-5.13-4.57-7.56h0c-1.35-2-2.76-3.91-4.26-5.76-1.47-1.85-3.02-3.64-4.64-5.37-16.33-17.46-39.56-28.4-65.29-28.45-48.41-.09-88.48,38.72-89.85,87.12-1.43,50.64,39.35,92.29,89.68,92.29,25.8,0,49.08-10.95,65.46-28.45l5.01,5.01,6.07,6.07,5,5c-20.49,21.62-49.47,35.12-81.55,35.12-61.48,0-111.59-49.57-112.46-110.83-.88-61.63,48.49-112.79,110.11-114.06,33.01-.68,62.91,12.94,83.91,35.08,1.63,1.71,3.2,3.48,4.72,5.3,1.53,1.81,2.99,3.7,4.4,5.61,1.73,2.35,3.36,4.76,4.9,7.25,1.29,2.07,2.52,4.19,3.67,6.36,1.18,2.19,2.28,4.43,3.3,6.71,6.37,14.09,9.91,29.71,9.91,46.13Z"/>
    <g>
      <path class="cls-1" d="M647.29,442.97l-66.08-66.08-52.7,52.7c1.54,1.81,3.03,3.67,4.45,5.56,1.74,2.32,3.41,4.72,4.97,7.18,1.32,2.04,2.58,4.13,3.75,6.26l39.53-39.52,33.87,33.87,16.34.04,15.87-.02Z"/>
      <polygon class="cls-1" points="631.42 442.98 615.08 442.95 615.13 443 631.42 442.98"/>
      <polygon class="cls-1" points="647.29 442.97 631.42 442.98 647.34 443.02 647.29 442.97"/>
      <path class="cls-1" d="M613.52,571.94l-32.31,32.31-39.53-39.52-5.21-5.22-5.25-5.24-47.61-47.61,30.43-30.43c-.93-2.35-1.97-4.66-3.12-6.9-1.35-2.66-2.83-5.22-4.45-7.7-1.32-2.01-2.72-3.96-4.18-5.83l-50.86,50.86,50.86,50.86,5.03,5.03,16.16,16.16,5.03,5.03,52.7,52.7,64.46-64.46-32.15-.03Z"/>
      <polygon class="cls-1" points="660.2 455.88 628.01 455.88 678.8 506.66 626.09 559.36 658.2 559.44 710.98 506.66 660.2 455.88"/>
      <polygon class="cls-1" points="660.18 455.86 628 455.86 628.01 455.88 660.2 455.88 660.18 455.86"/>
    </g>
  </g>
  <text class="cls-3" transform="translate(181.14 735.63)"><tspan x="0" y="0">Hocam Connect</tspan></text>
</svg>