<?xml version="1.0" encoding="UTF-8"?>
<svg id="Layer_1" xmlns="http://www.w3.org/2000/svg" viewBox="0 0 1024 1024">
  <defs>
    <style>
      .cls-1 {
        fill: #fff;
      }

      .cls-2 {
        fill: #e01e37;
      }

      .cls-3 {
        fill: #0491cd;
      }
    </style>
  </defs>
  <rect class="cls-1" width="1024" height="1024"/>
  <g>
    <path class="cls-2" d="M570.25,511.33c0,30.32-6.53,59.09-18.28,85.07l-9.92-9.92-12.19-12.19-10.18-10.18c5.59-16.58,8.62-34.34,8.62-52.77s-3.03-36.19-8.62-52.77c-1.54-4.54-3.26-8.98-5.17-13.32-1.83-4.23-3.86-8.36-6.06-12.4-2.59-4.8-5.41-9.45-8.43-13.94v-.03c-2.48-3.66-5.09-7.18-7.86-10.6-2.72-3.42-5.56-6.71-8.56-9.9-30.12-32.2-72.95-52.37-120.4-52.46-89.28-.17-163.17,71.4-165.69,160.65-2.64,93.38,72.56,170.19,165.38,170.19,47.58,0,90.5-20.18,120.71-52.46l9.24,9.24,11.2,11.2,9.22,9.22c-37.78,39.87-91.23,64.76-150.38,64.76-113.37,0-205.77-91.41-207.38-204.38s89.41-208,203.05-210.34c60.86-1.25,116.01,23.87,154.74,64.69,3,3.16,5.9,6.42,8.7,9.77,2.82,3.34,5.51,6.82,8.12,10.34,3.19,4.33,6.19,8.77,9.03,13.37,2.38,3.81,4.65,7.73,6.76,11.72,2.17,4.05,4.2,8.17,6.08,12.38,11.75,25.98,18.28,54.78,18.28,85.07Z"/>
    <g>
      <path class="cls-3" d="M751.07,394.54l-121.85-121.85-97.19,97.19c2.85,3.34,5.59,6.76,8.2,10.26,3.21,4.28,6.29,8.7,9.17,13.24,2.43,3.76,4.75,7.62,6.92,11.54l72.9-72.88,62.46,62.46,30.13.07,29.26-.03Z"/>
      <polygon class="cls-3" points="721.81 394.57 691.68 394.5 691.78 394.6 721.81 394.57"/>
      <polygon class="cls-3" points="751.07 394.54 721.81 394.57 751.17 394.64 751.07 394.54"/>
      <path class="cls-3" d="M688.8,632.38l-59.58,59.58-72.9-72.88-9.61-9.64-9.69-9.66-87.79-87.79,56.11-56.11c-1.72-4.33-3.63-8.59-5.74-12.72-2.48-4.91-5.22-9.64-8.2-14.2-2.43-3.71-5.01-7.31-7.7-10.76l-93.79,93.79,93.79,93.79,9.27,9.27,29.79,29.79,9.27,9.27,97.19,97.19,118.88-118.88-59.29-.06Z"/>
      <polygon class="cls-3" points="774.89 418.35 715.53 418.35 809.18 512 711.99 609.19 771.2 609.33 868.53 512 774.89 418.35"/>
      <polygon class="cls-3" points="774.86 418.33 715.51 418.33 715.53 418.35 774.89 418.35 774.86 418.33"/>
    </g>
  </g>
</svg>